<svg xmlns="http://www.w3.org/2000/svg" viewBox="0 0 1440 900" fill="none" role="img" aria-label="Abstract quality assurance background">
  <defs>
    <linearGradient id="gradA" x1="0" y1="0" x2="1" y2="1">
      <stop offset="0" stop-color="#0b2238"/>
      <stop offset="1" stop-color="#06101b"/>
    </linearGradient>
    <radialGradient id="glowA" cx="0" cy="0" r="1" gradientTransform="translate(340 180) scale(380)">
      <stop offset="0" stop-color="#38bdf8" stop-opacity="0.26"/>
      <stop offset="1" stop-color="#38bdf8" stop-opacity="0"/>
    </radialGradient>
    <radialGradient id="glowB" cx="0" cy="0" r="1" gradientTransform="translate(1120 240) scale(320)">
      <stop offset="0" stop-color="#34d399" stop-opacity="0.24"/>
      <stop offset="1" stop-color="#34d399" stop-opacity="0"/>
    </radialGradient>
  </defs>

  <rect width="1440" height="900" fill="url(#gradA)"/>
  <rect width="1440" height="900" fill="url(#glowA)"/>
  <rect width="1440" height="900" fill="url(#glowB)"/>

  <g opacity="0.4" stroke="#4f7598" stroke-width="1.2">
    <path d="M120 170H470V300H760"/>
    <path d="M240 520H530V670H840"/>
    <path d="M820 120H1060V260H1320"/>
    <path d="M700 410H920V560H1220"/>
  </g>

  <g fill="#7aa0c4" opacity="0.65">
    <circle cx="120" cy="170" r="5"/>
    <circle cx="470" cy="170" r="5"/>
    <circle cx="470" cy="300" r="5"/>
    <circle cx="760" cy="300" r="5"/>
    <circle cx="240" cy="520" r="5"/>
    <circle cx="530" cy="520" r="5"/>
    <circle cx="530" cy="670" r="5"/>
    <circle cx="840" cy="670" r="5"/>
    <circle cx="820" cy="120" r="5"/>
    <circle cx="1060" cy="120" r="5"/>
    <circle cx="1060" cy="260" r="5"/>
    <circle cx="1320" cy="260" r="5"/>
    <circle cx="700" cy="410" r="5"/>
    <circle cx="920" cy="410" r="5"/>
    <circle cx="920" cy="560" r="5"/>
    <circle cx="1220" cy="560" r="5"/>
  </g>

  <g opacity="0.42">
    <rect x="560" y="220" width="138" height="46" rx="10" fill="#113452"/>
    <rect x="560" y="220" width="73" height="46" rx="10" fill="#183f63"/>
    <rect x="740" y="640" width="170" height="46" rx="10" fill="#113452"/>
    <rect x="740" y="640" width="102" height="46" rx="10" fill="#1b4468"/>
  </g>
</svg>
